<svg width="15" height="15" viewBox="0 0 15 15" fill="none" xmlns="http://www.w3.org/2000/svg">
<g clip-path="url(#clip0_1_2132)">
<path fill-rule="evenodd" clip-rule="evenodd" d="M0 7.5C0 5.51088 0.790176 3.60322 2.1967 2.1967C3.60322 0.790176 5.51088 0 7.5 0C9.48912 0 11.3968 0.790176 12.8033 2.1967C14.2098 3.60322 15 5.51088 15 7.5C15 9.48912 14.2098 11.3968 12.8033 12.8033C11.3968 14.2098 9.48912 15 7.5 15C5.51088 15 3.60322 14.2098 2.1967 12.8033C0.790176 11.3968 0 9.48912 0 7.5ZM10.146 10.854L7.5 8.207L4.854 10.854L4.146 10.147L6.793 7.5L4.146 4.854L4.854 4.146L7.5 6.793L10.146 4.146L10.854 4.854L8.207 7.5L10.854 10.146L10.147 10.854H10.146Z" fill="#DDE0E6"/>
</g>
<defs>
<clipPath id="clip0_1_2132">
<rect width="15" height="15" fill="white"/>
</clipPath>
</defs>
</svg>
